PathFileType	4	(X/Y/Z)	pose_F01_0-96.trc
DataRate	CameraRate	NumFrames	NumMarkers	Units	OrigDataRate	OrigDataStartFrame	OrigNumFrames
30	30	5	21	m	30	36	96
Frame#	Time	CHip			RHip			RKnee			RAnkle			RBigToe			RSmallToe			RHeel			LHip			LKnee			LAnkle			LBigToe			LSmallToe			LHeel			Neck			Nose			RShoulder			RElbow			RWrist			LShoulder			LElbow			LWrist			
		X1	Y1	Z1	X2	Y2	Z2	X3	Y3	Z3	X4	Y4	Z4	X5	Y5	Z5	X6	Y6	Z6	X7	Y7	Z7	X8	Y8	Z8	X9	Y9	Z9	X10	Y10	Z10	X11	Y11	Z11	X12	Y12	Z12	X13	Y13	Z13	X14	Y14	Z14	X15	Y15	Z15	X16	Y16	Z16	X17	Y17	Z17	X18	Y18	Z18	X19	Y19	Z19	X20	Y20	Z20	X21	Y21	Z21	
36	1.2	-0.2940917377368076	1.8342232041518758	-0.7000177919063582	-0.31284269916252533	1.8291821828478203	-0.6310143356478287	-0.3024894710317929	1.689294498883445	-0.5965422956435225	-0.2954767202767287	1.559905627321199	-0.5668751742451404	-0.2863604797215126	1.5326370749065632	-0.525210289074862	-0.29574349110482373	1.5395369121811635	-0.5021410374379638	-0.29965650022383	1.550705777434455	-0.5956924859563897	-0.2758421224723177	1.83645636101155	-0.7665755225613897	-0.2814992961573878	1.6879141406503195	-0.7474685496965418	-0.2420055273115262	1.5756574266640357	-0.7336205761882466	-0.38029063468604746	1.5065013385349555	-1.0582667149606126	-0.367378507053011	1.510238564997473	-1.0833399886814208				-0.2851454417360141	1.9988965950859794	-0.7128685986627489	-0.26619718703396344	2.064972292351387	-0.6654358065071364	-0.3127743016949179	1.9925223266848533	-0.6189913423353145	-0.3192154851343613	1.9078315692336978	-0.5596695363315219	-1.7159352690886358	1.8887358872961324	1.1035803062283782	-0.25670673828099794	2.0038737391944563	-0.8045565773112482	-0.9932756228973335	1.8436488834926221	-0.1131683657486307	-0.9717772856008438	1.8808767358473877	0.02977804094997799
37	1.2333333333333334	-0.2940917377368076	1.8342232041518758	-0.7000177919063582	-0.31284269916252533	1.8291821828478203	-0.6310143356478287	-0.3024894710317929	1.689294498883445	-0.5965422956435225	-0.2954767202767287	1.559905627321199	-0.5668751742451404	-0.2863604797215126	1.5326370749065632	-0.525210289074862	-0.29574349110482373	1.5395369121811635	-0.5021410374379638	-0.29965650022383	1.550705777434455	-0.5956924859563897	-0.2758421224723177	1.83645636101155	-0.7665755225613897	-0.2814992961573878	1.6879141406503195	-0.7474685496965418	-0.2420055273115262	1.5756574266640357	-0.7336205761882466	-0.38029063468604746	1.5065013385349555	-1.0582667149606126	-0.367378507053011	1.510238564997473	-1.0833399886814208				-0.2851454417360141	1.9988965950859794	-0.7128685986627489	-0.26619718703396344	2.064972292351387	-0.6654358065071364	-0.3127743016949179	1.9925223266848533	-0.6189913423353145	-0.3192154851343613	1.9078315692336978	-0.5596695363315219	-1.7523962391031533	1.8907974094166695	1.1652928468789288	-0.25670673828099794	2.0038737391944563	-0.8045565773112482	-0.9647306221861996	1.8440414323339323	-0.1583153217964091	-0.7933156413816026	1.8838471227201818	-0.1873737750866068
38	1.2666666666666666	-0.2940917377368076	1.8342232041518758	-0.7000177919063582	-0.31284269916252533	1.8291821828478203	-0.6310143356478287	-0.3024894710317929	1.689294498883445	-0.5965422956435225	-0.2954767202767287	1.559905627321199	-0.5668751742451404	-0.2863604797215126	1.5326370749065632	-0.525210289074862	-0.29574349110482373	1.5395369121811635	-0.5021410374379638	-0.29965650022383	1.550705777434455	-0.5956924859563897	-0.2758421224723177	1.83645636101155	-0.7665755225613897	-0.2814992961573878	1.6879141406503195	-0.7474685496965418	-0.2420055273115262	1.5756574266640357	-0.7336205761882466	-0.38029063468604746	1.5065013385349555	-1.0582667149606126	-0.367378507053011	1.510238564997473	-1.0833399886814208				-0.2851454417360141	1.9988965950859794	-0.7128685986627489	-0.26619718703396344	2.064972292351387	-0.6654358065071364	-0.3127743016949179	1.9925223266848533	-0.6189913423353145	-0.3192154851343613	1.9078315692336978	-0.5596695363315219	-1.2685970529189392	1.8802095205042757	0.6263300693470021	-0.25670673828099794	2.0038737391944563	-0.8045565773112482	-0.9361856214750659	1.8444339811752426	-0.20346227784418744	-0.6148539971623616	1.8868175095929758	-0.40452559112319153
39	1.3	-0.2940917377368076	1.8342232041518758	-0.7000177919063582	-0.31284269916252533	1.8291821828478203	-0.6310143356478287	-0.3024894710317929	1.689294498883445	-0.5965422956435225	-0.2954767202767287	1.559905627321199	-0.5668751742451404	-0.2863604797215126	1.5326370749065632	-0.525210289074862	-0.29574349110482373	1.5395369121811635	-0.5021410374379638	-0.29965650022383	1.550705777434455	-0.5956924859563897	-0.2758421224723177	1.83645636101155	-0.7665755225613897	-0.2814992961573878	1.6879141406503195	-0.7474685496965418	-0.2420055273115262	1.5756574266640357	-0.7336205761882466	-0.38029063468604746	1.5065013385349555	-1.0582667149606126	-0.367378507053011	1.510238564997473	-1.0833399886814208				-0.2851454417360141	1.9988965950859794	-0.7128685986627489	-0.26619718703396344	2.064972292351387	-0.6654358065071364	-0.3127743016949179	1.9925223266848533	-0.6189913423353145	-0.3192154851343613	1.9078315692336978	-0.5596695363315219	-0.7847978667347252	1.8696216315918817	0.08736729181507541	-0.25670673828099794	2.0038737391944563	-0.8045565773112482	-0.5912555250170044	1.8897765692970139	-0.5466554770200996	-0.4363923529431205	1.8897878964657697	-0.6216774071597763
40	1.3333333333333333	-0.2940917377368076	1.8342232041518758	-0.7000177919063582	-0.31284269916252533	1.8291821828478203	-0.6310143356478287	-0.3024894710317929	1.689294498883445	-0.5965422956435225	-0.2954767202767287	1.559905627321199	-0.5668751742451404	-0.2863604797215126	1.5326370749065632	-0.525210289074862	-0.29574349110482373	1.5395369121811635	-0.5021410374379638	-0.29965650022383	1.550705777434455	-0.5956924859563897	-0.2758421224723177	1.83645636101155	-0.7665755225613897	-0.2814992961573878	1.6879141406503195	-0.7474685496965418	-0.2420055273115262	1.5756574266640357	-0.7336205761882466	-0.38029063468604746	1.5065013385349555	-1.0582667149606126	-0.367378507053011	1.510238564997473	-1.0833399886814208				-0.2851454417360141	1.9988965950859794	-0.7128685986627489	-0.26619718703396344	2.064972292351387	-0.6654358065071364	-0.3127743016949179	1.9925223266848533	-0.6189913423353145	-0.3192154851343613	1.9078315692336978	-0.5596695363315219	-0.3009986805505112	1.8590337426794878	-0.45159548571685115	-0.25670673828099794	2.0038737391944563	-0.8045565773112482	-0.24632542855894288	1.9351191574187852	-0.8898486761960118	-0.25793070872387935	1.8927582833385637	-0.8388292231963611
